<svg width="65" height="32" viewBox="0 0 65 32" fill="none" xmlns="http://www.w3.org/2000/svg">
<path d="M27.8599 17.3258C29.4046 17.5188 30.7705 17.8579 31.9481 18.3005L32.0286 18.3313C30.8929 25.9974 24.242 31.8819 16.2073 31.8819C15.2002 31.8819 14.2149 31.7895 13.2595 31.6127L14.3678 27.5042C14.9671 27.5979 15.5815 27.6466 16.2073 27.6466C22.2328 27.6466 27.197 23.1338 27.8599 17.3258ZM32.3926 18.4733C32.8272 18.6464 33.2884 18.8424 33.7763 19.0515L34.5852 19.3977C35.4451 19.7641 36.3764 20.1509 37.379 20.5176C39.1559 24.706 43.3282 27.6466 48.1922 27.6466C48.8184 27.6466 49.4331 27.5979 50.0327 27.504L51.141 31.6125C50.1852 31.7894 49.1996 31.8819 48.1922 31.8819C40.2071 31.8819 33.5888 26.07 32.3926 18.4733ZM48.1922 0.117188C57.0245 0.117188 64.1846 7.22796 64.1846 15.9995C64.1846 22.6942 60.0138 28.4215 54.1119 30.7583L52.9972 26.6273C56.4599 25.0809 59.0303 21.9143 59.7298 18.0997C56.9647 19.9027 52.72 21.2013 47.736 21.5047C40.7885 21.9277 35.6118 18.9227 32.1997 17.6403C28.7876 16.3579 23.8389 15.8994 17.5714 17.2853C12.7238 18.3572 8.60795 20.1502 6.18555 22.0527C7.41425 24.0543 9.23352 25.6589 11.403 26.6276L10.2886 30.7587C4.38618 28.4222 0.214844 22.6946 0.214844 15.9995C0.214844 7.22796 7.3749 0.117188 16.2073 0.117188C16.99 0.117188 17.7596 0.173033 18.5123 0.280932L17.3978 4.41176C17.0064 4.37256 16.6092 4.35248 16.2073 4.35248C10.6295 4.35248 5.96123 8.21952 4.7724 13.4013C7.67255 11.7283 11.8933 10.5347 16.6446 10.2454C22.5509 9.88584 28.5993 12.288 31.8386 13.7121L32.1997 13.8719C35.3347 15.2669 39.5639 16.0941 47.2212 14.401C51.8112 13.386 55.7451 11.7245 58.2067 9.93577C56.1468 6.58714 52.4323 4.35248 48.1922 4.35248C47.7908 4.35248 47.3941 4.37251 47.003 4.41161L45.8886 0.280729C46.6408 0.172963 47.4099 0.117188 48.1922 0.117188ZM42.8849 1.01269L43.9935 5.12111C40.0647 6.6176 37.1528 10.1528 36.5709 14.4228C35.0556 14.1904 33.7926 13.7901 32.6753 13.3087L32.4459 13.2083C33.4603 7.52584 37.5172 2.88742 42.8849 1.01269ZM21.5156 1.01306C26.8081 2.86195 30.8261 7.39767 31.9094 12.9717C30.5787 12.3923 28.8248 11.6764 26.8245 11.0458C25.5412 8.33773 23.2382 6.20024 20.407 5.12152L21.5156 1.01306Z" fill="url(#paint0_linear)"/>
<defs>
<linearGradient id="paint0_linear" x1="0.214844" y1="15.9995" x2="64.1846" y2="15.9995" gradientUnits="userSpaceOnUse">
<stop stop-color="#0366CC"/>
<stop offset="1" stop-color="#39C0FE"/>
</linearGradient>
</defs>
</svg>
