<svg width="40" height="40" viewBox="0 0 40 40" fill="none" xmlns="http://www.w3.org/2000/svg">
<path d="M39 20C39 30.4934 30.4934 39 20 39C9.50659 39 1 30.4934 1 20C1 9.50659 9.50659 1 20 1C30.4934 1 39 9.50659 39 20Z" fill="url(#paint0_linear)" stroke="url(#paint1_radial)" stroke-width="2"/>
<path d="M20.1255 11.9526C20.1255 11.9526 23.0438 7.48025 26.4178 10.4537C24.7507 12.821 22.4776 14.5832 20.1255 11.9526Z" fill="#1B7704"/>
<path d="M21.2247 30C24.1717 29.9793 26.3756 29.5035 27.9325 28.0651C30.1288 26.0333 31.1676 22.957 30.978 19.7926C30.5509 12.6085 21.9197 13.3734 21.2753 15.3949H21.2247C19.3671 15.1996 11.9491 12.6085 11.5219 19.7926C11.3324 22.957 12.3737 26.0255 14.5675 28.0574C16.1244 29.4957 18.2777 29.9793 21.2247 30Z" fill="#DB5F5F"/>
<path d="M19.6674 29.8165H19.6623C18.2049 29.7911 16.8211 30.5245 15.549 29.9862C14.4674 29.5292 13.4568 28.8792 12.5453 28.0565C10.2652 25.9999 9.07692 22.8717 9.28513 19.4745C9.34606 18.4792 9.56696 17.5905 9.94021 16.8364C10.2881 16.1305 10.7705 15.5364 11.3748 15.0667C12.6722 14.0586 14.2236 13.8479 15.2976 13.8479C16.3691 13.8479 17.4609 14.0561 18.375 14.437C18.9082 14.6579 19.3449 14.9245 19.6674 15.2215C19.9873 14.927 20.424 14.6579 20.9597 14.437C21.8738 14.0586 22.9656 13.8479 24.0371 13.8479C25.1111 13.8479 26.665 14.0586 27.9599 15.0667C28.5642 15.5364 29.0466 16.1305 29.3945 16.8364C29.7677 17.593 29.9886 18.4792 30.0496 19.4745C30.2578 22.8717 29.0695 25.9999 26.7894 28.0565C25.8779 28.8792 24.8674 29.5317 23.7857 29.9887C22.5136 30.5245 21.1299 29.7911 19.6724 29.8165H19.6674ZM15.2976 15.0667C13.9392 15.0667 10.7502 15.5034 10.5013 19.5481C10.316 22.5721 11.3595 25.3422 13.3629 27.1501C15.1377 28.7522 16.4949 29.6562 19.6623 28.7463C22.9949 29.6562 24.1996 28.7522 25.9718 27.1501C27.9752 25.3448 29.0162 22.5721 28.8334 19.5481C28.5871 15.5034 25.398 15.0667 24.0371 15.0667C23.1357 15.0667 22.1836 15.2469 21.4269 15.5618C20.6246 15.8944 20.325 16.2499 20.2717 16.4073C20.1904 16.6586 19.9568 16.8262 19.6927 16.8262H19.642C19.3779 16.8262 19.1443 16.6561 19.0631 16.4073C19.0123 16.2499 18.7101 15.8944 17.9078 15.5618C17.1511 15.2469 16.199 15.0667 15.2976 15.0667Z" fill="black"/>
<path d="M25.8687 22.5166C25.8281 22.5166 25.7849 22.5115 25.7417 22.4988C25.5132 22.4302 25.3863 22.1865 25.4548 21.9605C25.498 21.8183 25.5386 21.6736 25.5716 21.5263C25.6275 21.2953 25.8611 21.1505 26.0921 21.2064C26.3232 21.2623 26.4679 21.4933 26.4121 21.7269C26.374 21.8894 26.3283 22.0544 26.28 22.2119C26.2242 22.3972 26.054 22.5166 25.8687 22.5166ZM21.7986 27.1478C21.6361 27.1478 21.4812 27.0564 21.4076 26.9015C21.306 26.6857 21.3974 26.4292 21.6132 26.3277C22.2099 26.0458 22.771 25.6751 23.3728 25.1623C23.7359 24.855 24.071 24.4919 24.4037 24.0501C24.5662 23.8318 24.721 23.588 24.8937 23.2808C25.0105 23.0726 25.272 22.9964 25.4802 23.1132C25.6884 23.23 25.7646 23.4916 25.6478 23.6998C25.4574 24.0425 25.2822 24.3193 25.0943 24.5681C24.7236 25.0607 24.3453 25.4695 23.9314 25.8199C23.2687 26.381 22.6492 26.7898 21.9814 27.1072C21.923 27.1351 21.8621 27.1478 21.7986 27.1478ZM19.673 16.3589C19.6603 16.3589 19.6451 16.3589 19.6324 16.3564C19.2972 16.3335 19.0433 16.0441 19.0662 15.7064C19.2871 12.431 18.3298 11.8927 17.2228 11.2707C17.1593 11.2351 17.0958 11.1996 17.0324 11.1615C16.7404 10.9939 16.6388 10.6232 16.8064 10.3312C16.974 10.0392 17.3447 9.93765 17.6367 10.1052C17.6976 10.1408 17.7585 10.1738 17.8195 10.2093C18.439 10.5572 19.1423 10.9533 19.6501 11.8064C20.2011 12.7332 20.4017 14.0001 20.2824 15.7902C20.2595 16.1126 19.9904 16.3589 19.673 16.3589Z" fill="black"/>
<path d="M21.7193 14C20.3009 14 19.2767 13.5003 19.0491 12.6944C18.8714 12.0647 19.1795 11.3368 19.9151 10.6407C20.5535 10.037 21.4278 9.54593 22.3743 9.25708C22.9322 9.08666 23.5123 9 24.1008 9C25.3054 9 26.7127 9.39861 26.9597 10.2681C27.1707 11.0104 26.5045 11.8192 26.0882 12.2351C25.422 12.9024 24.5504 13.4252 23.6345 13.7054C23.0044 13.8989 22.3438 14 21.7193 14ZM20.3425 12.2958C20.4702 12.4055 20.9171 12.6106 21.7193 12.6106C22.2189 12.6106 22.7518 12.5269 23.2598 12.3738C24.5588 11.9752 25.3748 11.0913 25.6052 10.684C25.3665 10.5598 24.8474 10.3836 24.1008 10.3836C23.64 10.3836 23.1848 10.45 22.7518 10.5858C22.0607 10.7966 21.4139 11.1462 20.9282 11.5621C20.5174 11.9145 20.3759 12.1889 20.3425 12.2958Z" fill="black"/>
<defs>
<linearGradient id="paint0_linear" x1="37" y1="20" x2="2" y2="18.5" gradientUnits="userSpaceOnUse">
<stop stop-color="#2D2103"/>
<stop offset="1" stop-color="#1D2C04"/>
</linearGradient>
<radialGradient id="paint1_radial" cx="0" cy="0" r="1" gradientUnits="userSpaceOnUse" gradientTransform="translate(38.1818 20.202) rotate(-168.923) scale(38.9066 104.002)">
<stop stop-color="#C14601"/>
<stop offset="0.700543" stop-color="#372C05"/>
<stop offset="1" stop-color="#F07606" stop-opacity="0.92"/>
</radialGradient>
</defs>
</svg>
