<svg width="40" height="40" viewBox="0 0 40 40" fill="none" xmlns="http://www.w3.org/2000/svg">
<path d="M39 20C39 30.4934 30.4934 39 20 39C9.50659 39 1 30.4934 1 20C1 9.50659 9.50659 1 20 1C30.4934 1 39 9.50659 39 20Z" fill="url(#paint0_radial)" stroke="url(#paint1_radial)" stroke-width="2"/>
<g clip-path="url(#clip0)">
<path d="M7.60676 25.9886C8.17435 25.4427 9.03648 25.0803 10.0443 24.9506C10.0707 24.1381 10.1801 23.3082 10.3223 22.5375C10.2874 22.5183 10.2535 22.4977 10.2204 22.4765C9.81154 22.2119 9.32085 21.6513 9.3017 20.4842C9.27268 18.6082 10.5617 15.0436 13.5221 12.9932C13.8003 12.8015 14.0885 12.6245 14.3853 12.463C14.84 11.8113 15.2962 11.264 15.744 10.8337C17.1461 9.48407 19.861 8.41681 21.4857 8.11425C23.1104 7.8117 24.8061 7.65301 26.8456 8.12403C28.4744 8.5002 29.8684 8.99715 30.7778 9.81545C30.8155 9.84708 30.8524 9.88045 30.8904 9.91702C32.2113 11.1874 33 13.5834 33 16.3262C33 19.6711 31.855 22.7682 29.9372 24.6131C28.322 26.1662 25.6875 27.3765 23.9174 28.072C23.6098 29.1614 22.9442 30.6683 21.5861 30.9378C21.4491 30.9648 21.3099 30.9782 21.1703 30.9779C20.287 30.9779 19.3953 30.4712 18.9516 29.7162C18.929 29.6785 18.9083 29.6405 18.8889 29.6024C17.5605 29.8891 16.3324 30.0516 15.2695 30.0798C15.1439 30.9468 14.8157 31.8232 14.1784 32.436C13.789 32.8107 13.3613 33.0004 12.9075 33.0007C11.615 33.0007 11.2584 31.7184 11.0227 30.8697C10.9177 30.4924 10.723 29.7911 10.5413 29.6164C10.3504 29.433 9.60551 29.2415 9.20652 29.1387C8.31973 28.9109 7.31485 28.6524 7.0531 27.662C6.96083 27.3231 6.91295 26.6548 7.60676 25.9886Z" fill="#25467A"/>
<path d="M18.7896 12.8905C18.2246 12.2135 15.8509 12.9361 14.2628 14.0396C11.0551 16.2679 9.99076 20.7857 10.9257 21.3933C11.7716 21.9424 14.4111 19.4074 15.2146 18.6366C17.0232 16.899 19.5304 13.777 18.7896 12.8905Z" fill="url(#paint2_linear)"/>
<path d="M11.7657 27.588C11.8591 27.7603 11.9773 27.918 12.1165 28.056C12.1557 28.0952 12.1978 28.1309 12.2402 28.1666C14.8596 30.2466 25.669 26.938 29.0328 23.6914C30.7521 22.0339 31.5864 19.3721 31.6914 16.8403L30.9114 17.5948C30.3891 18.102 29.5365 18.102 29.0102 17.5948C28.8861 17.4759 28.7874 17.3331 28.72 17.175C28.6526 17.017 28.6178 16.8469 28.6178 16.6751C28.6178 16.5032 28.6526 16.3332 28.72 16.1751C28.7874 16.0171 28.8861 15.8743 29.0102 15.7553L31.3632 13.4803C31.0771 12.3623 30.6125 11.4233 29.9883 10.822C29.9694 10.8028 29.9487 10.7853 29.9265 10.7698C29.7301 10.5902 29.5151 10.4321 29.2852 10.298C26.3733 8.53338 19.779 8.71533 16.6427 11.741C13.4165 14.8514 10.1308 24.5655 11.7657 27.588Z" fill="#175D8D"/>
<path d="M11.7657 27.5879C11.8591 27.7602 11.9773 27.9179 12.1165 28.0559C12.1557 28.0951 12.1978 28.1308 12.2402 28.1665C14.8596 30.2465 25.669 26.9379 29.0328 23.6913C30.7521 22.0338 31.5864 19.372 31.6914 16.8402L30.9114 17.5947C30.3891 18.1019 29.5365 18.1019 29.0102 17.5947C28.8861 17.4758 28.7874 17.333 28.72 17.1749C28.6526 17.0169 28.6178 16.8468 28.6178 16.675C28.6178 16.5031 28.6526 16.3331 28.72 16.175C28.7874 16.017 28.8861 15.8742 29.0102 15.7552L31.3632 13.4802C31.0771 12.3622 30.6125 11.4232 29.9883 10.8219C29.9694 10.8027 29.9487 10.7852 29.9265 10.7697C29.7301 10.5901 29.5151 10.4319 29.2852 10.2979C24.7721 12.287 19.5265 16.6159 16.1207 20.9352C15.1652 22.1473 13.0352 24.8483 11.7657 27.5879Z" fill="#009BEF"/>
<path d="M12.2402 28.1666C14.8596 30.2466 25.669 26.9379 29.0328 23.6914C30.7521 22.0339 31.5864 19.3721 31.6914 16.8403L30.9114 17.5948C30.3891 18.102 29.5365 18.102 29.0102 17.5948C28.8861 17.4759 28.7874 17.3331 28.72 17.175C28.6526 17.017 28.6178 16.8469 28.6178 16.6751C28.6178 16.5032 28.6526 16.3332 28.72 16.1751C28.7874 16.017 28.8861 15.8743 29.0102 15.7553L31.3632 13.4803C31.0771 12.3623 30.6125 11.4233 29.9883 10.822C29.9694 10.8028 29.9487 10.7853 29.9265 10.7698C27.0178 12.772 23.8908 15.3233 20.8149 18.2903C17.3395 21.6439 14.4078 25.0596 12.2402 28.1666Z" fill="url(#paint3_linear)"/>
<path d="M13.2746 31.5377C14.2868 30.5615 14.2868 27.9177 13.2746 26.9416C12.2625 25.9654 9.52144 25.9651 8.5093 26.9416C7.49716 27.918 10.4294 27.7329 11.4418 28.7093C12.4543 29.6858 12.2622 32.5142 13.2746 31.5377ZM19.761 20.685C22.0586 22.9017 26.2154 25.8978 29.3972 23.314L29.4036 23.3077C29.5174 23.1745 29.6279 23.0413 29.7353 22.8982C30.9865 21.2538 31.6006 19.0014 31.6885 16.8434C31.6885 16.8434 31.4328 17.0868 30.9105 17.594C30.3882 18.1013 29.5356 18.1013 29.0093 17.594C28.8852 17.4751 28.7865 17.3323 28.7191 17.1743C28.6517 17.0162 28.6169 16.8462 28.6169 16.6743C28.6169 16.5025 28.6517 16.3324 28.7191 16.1744C29.0093 15.6982 30.0283 15.1712 30.3997 14.7998C30.7711 14.4284 31.3597 13.4828 31.3597 13.4828C31.34 13.405 31.3205 13.3302 31.2979 13.2553C31.0118 12.235 30.5666 11.3802 29.988 10.8213C27.7827 8.69253 21.1547 8.46503 17.466 11.0615C17.3209 11.1689 17.1758 11.2763 17.04 11.3865C17.04 11.39 17.04 11.39 17.0368 11.39C14.3529 14.4575 17.4599 18.4652 19.761 20.685ZM22.5908 24.8355C22.0017 24.5743 20.5549 26.3734 20.0715 27.873C19.9095 28.3748 19.8814 28.7636 20.0715 29.088C20.319 29.5094 20.9092 29.7789 21.3311 29.6954C22.7022 29.4226 23.3934 25.1941 22.5908 24.8355Z" fill="url(#paint4_linear)"/>
<path d="M27.8926 13.732C27.8926 14.3354 27.6529 14.9141 27.2262 15.3407C26.7996 15.7673 26.2209 16.007 25.6176 16.007C25.0142 16.007 24.4356 15.7673 24.0089 15.3407C23.5823 14.9141 23.3426 14.3354 23.3426 13.732C23.3426 13.1287 23.5823 12.55 24.0089 12.1234C24.4356 11.6967 25.0142 11.457 25.6176 11.457C26.2209 11.457 26.7996 11.6967 27.2262 12.1234C27.6529 12.55 27.8926 13.1287 27.8926 13.732Z" fill="white"/>
<path d="M26.5928 13.7321C26.5928 13.8601 26.5676 13.9869 26.5186 14.1052C26.4696 14.2235 26.3977 14.331 26.3072 14.4215C26.2167 14.512 26.1092 14.5839 25.9909 14.6329C25.8726 14.6819 25.7458 14.7071 25.6178 14.7071C25.4897 14.7071 25.3629 14.6819 25.2447 14.6329C25.1264 14.5839 25.0189 14.512 24.9283 14.4215C24.8378 14.331 24.766 14.2235 24.717 14.1052C24.668 13.9869 24.6428 13.8601 24.6428 13.7321C24.6428 13.604 24.668 13.4773 24.717 13.359C24.766 13.2407 24.8378 13.1332 24.9283 13.0427C25.0189 12.9521 25.1264 12.8803 25.2447 12.8313C25.3629 12.7823 25.4897 12.7571 25.6178 12.7571C25.7458 12.7571 25.8726 12.7823 25.9909 12.8313C26.1092 12.8803 26.2167 12.9521 26.3072 13.0427C26.3977 13.1332 26.4696 13.2407 26.5186 13.359C26.5676 13.4773 26.5928 13.604 26.5928 13.7321Z" fill="#25467A"/>
</g>
<defs>
<radialGradient id="paint0_radial" cx="0" cy="0" r="1" gradientUnits="userSpaceOnUse" gradientTransform="translate(38.1818 20.202) rotate(-168.923) scale(38.9066 104.002)">
<stop stop-color="#0765A9"/>
<stop offset="1" stop-color="#494DAA" stop-opacity="0.92"/>
<stop offset="1" stop-color="#184084"/>
</radialGradient>
<radialGradient id="paint1_radial" cx="0" cy="0" r="1" gradientUnits="userSpaceOnUse" gradientTransform="translate(38.1818 20.202) rotate(-168.923) scale(38.9066 104.002)">
<stop stop-color="#0401A2"/>
<stop offset="0.662283" stop-color="#0060FF"/>
<stop offset="1" stop-color="#00FFF0" stop-opacity="0.92"/>
</radialGradient>
<linearGradient id="paint2_linear" x1="14.7612" y1="12.6282" x2="14.7612" y2="21.4705" gradientUnits="userSpaceOnUse">
<stop stop-color="#C9E1F3"/>
<stop offset="1" stop-color="#C9E1F3"/>
</linearGradient>
<linearGradient id="paint3_linear" x1="19.4087" y1="28.2729" x2="15.8632" y2="20.591" gradientUnits="userSpaceOnUse">
<stop stop-color="#2B8EF1"/>
<stop offset="1" stop-color="#FDFEFF" stop-opacity="0.63"/>
</linearGradient>
<linearGradient id="paint4_linear" x1="19.9942" y1="9.16943" x2="19.9942" y2="31.7397" gradientUnits="userSpaceOnUse">
<stop stop-color="#C9E1F3"/>
<stop offset="1" stop-color="#C9E1F3"/>
</linearGradient>
<clipPath id="clip0">
<rect width="26" height="26" fill="white" transform="matrix(-1 0 0 1 33 7)"/>
</clipPath>
</defs>
</svg>
