<svg width="40" height="40" viewBox="0 0 40 40" fill="none" xmlns="http://www.w3.org/2000/svg">
<path d="M39 20C39 9.50659 30.4934 1 20 1C9.50659 1 1 9.50659 1 20C1 30.4934 9.50659 39 20 39C30.4934 39 39 30.4934 39 20Z" fill="url(#paint0_linear)" stroke="url(#paint1_radial)" stroke-width="2"/>
<path d="M11.791 22.0155C11.791 24.4425 12.7551 26.77 14.4712 28.4861C16.1873 30.2022 18.5149 31.1663 20.9418 31.1663C23.3687 31.1663 25.6963 30.2022 27.4124 28.4861C29.1285 26.77 30.0926 24.4425 30.0926 22.0155C30.0926 19.5886 29.1285 17.2611 27.4124 15.5449C25.6963 13.8288 23.3687 12.8647 20.9418 12.8647C18.5149 12.8647 16.1873 13.8288 14.4712 15.5449C12.7551 17.2611 11.791 19.5886 11.791 22.0155Z" fill="#FFAC48"/>
<path d="M19.3727 30.9301C18.0574 30.9301 16.7828 30.6737 15.5818 30.1633C14.4215 29.6733 13.3805 28.97 12.4867 28.0762C11.593 27.1825 10.8896 26.1415 10.3996 24.9811C9.8918 23.7801 9.63281 22.5055 9.63281 21.1903C9.63281 19.875 9.88926 18.6004 10.3996 17.3995C10.8896 16.2391 11.593 15.1981 12.4867 14.3043C13.3805 13.4106 14.4215 12.7073 15.5818 12.2172C16.7828 11.7094 18.0574 11.4504 19.3727 11.4504C20.6879 11.4504 21.9625 11.7069 23.1635 12.2172C24.3238 12.7073 25.3648 13.4106 26.2586 14.3043C27.1523 15.1981 27.8557 16.2391 28.3457 17.3995C28.8535 18.6004 29.1125 19.875 29.1125 21.1903C29.1125 22.5055 28.8561 23.7801 28.3457 24.9811C27.8557 26.1415 27.1523 27.1825 26.2586 28.0762C25.3648 28.97 24.3238 29.6733 23.1635 30.1633C21.9625 30.6711 20.6879 30.9301 19.3727 30.9301ZM19.3727 12.626C14.65 12.626 10.8084 16.4676 10.8084 21.1903C10.8084 25.9129 14.65 29.7545 19.3727 29.7545C24.0953 29.7545 27.9369 25.9129 27.9369 21.1903C27.9369 16.4676 24.0953 12.626 19.3727 12.626Z" fill="black"/>
<path d="M18.0622 20.439C17.7625 20.439 17.4706 20.3247 17.2497 20.1114L16.9551 19.8296L16.554 19.7509C16.1325 19.6671 15.7897 19.3624 15.6602 18.9511C15.5307 18.5397 15.6348 18.0929 15.9319 17.7831L16.2137 17.4886L16.2924 17.0874C16.3762 16.6659 16.6809 16.3231 17.0922 16.1937C17.5036 16.0642 17.9504 16.1683 18.2602 16.4653L18.5547 16.7472L18.9559 16.8259C19.3774 16.9097 19.7202 17.2144 19.8497 17.6257C19.9791 18.037 19.875 18.4839 19.578 18.7936L19.2961 19.0882L19.2174 19.4894C19.1336 19.9108 18.829 20.2536 18.4176 20.3831C18.3008 20.4212 18.1815 20.439 18.0622 20.439ZM16.7825 18.5981L17.1836 18.6769C17.4045 18.72 17.6077 18.8267 17.7702 18.9815L18.0647 19.2634L18.1434 18.8647C18.1866 18.6438 18.2932 18.4407 18.4481 18.2782L18.7299 17.9837L18.3313 17.905C18.1104 17.8618 17.9073 17.7552 17.7448 17.6003L17.4502 17.3185L17.3715 17.7171C17.3284 17.938 17.2217 18.1411 17.0668 18.3036L16.7825 18.5981C16.7825 18.5956 16.7825 18.5956 16.7825 18.5981C16.7825 18.5981 16.7825 18.5956 16.7825 18.5981Z" fill="black"/>
<path d="M18.7959 16.4702C18.7959 16.4702 16.5311 10.1226 24.1203 9.52588C25.1791 12.9968 24.7855 16.5159 18.7959 16.4702Z" fill="#1B7704"/>
<path d="M18.9112 17.2064H18.7918C18.4821 17.2039 18.2078 17.0084 18.1037 16.7189C18.0606 16.5996 17.0754 13.7584 18.5684 11.4529C19.5764 9.89393 21.4274 9.00018 24.0654 8.79198C24.4108 8.76405 24.7256 8.97987 24.8272 9.30994C25.5914 11.8185 25.4619 13.7838 24.4387 15.1498C23.9283 15.8328 23.2047 16.3508 22.2805 16.6935C21.3664 17.0338 20.234 17.2064 18.9112 17.2064ZM23.5805 10.3205C21.7473 10.5617 20.4778 11.2092 19.8024 12.2502C19.3479 12.9535 19.1549 13.832 19.2311 14.8654C19.2565 15.2006 19.3072 15.4976 19.3555 15.7262C21.2725 15.6627 22.5826 15.1726 23.2555 14.2713C23.9156 13.3953 24.0223 12.0674 23.5805 10.3205Z" fill="black"/>
<path d="M15.1789 27.454C15.1002 27.454 15.019 27.4388 14.9428 27.4032C14.3867 27.1569 13.818 26.6771 13.2568 25.9737C12.8557 25.471 12.6043 25.0343 12.5916 25.0165C12.4291 24.7347 12.5256 24.3767 12.8074 24.2142C13.0893 24.0517 13.4473 24.1481 13.6098 24.43C13.8484 24.8413 14.6356 25.9864 15.415 26.3292C15.7121 26.4612 15.8467 26.8066 15.7147 27.1036C15.6207 27.322 15.4049 27.454 15.1789 27.454Z" fill="black"/>
<defs>
<linearGradient id="paint0_linear" x1="37" y1="20" x2="2" y2="21.5" gradientUnits="userSpaceOnUse">
<stop stop-color="#0D1302"/>
<stop offset="1" stop-color="#1E5515"/>
</linearGradient>
<radialGradient id="paint1_radial" cx="0" cy="0" r="1" gradientUnits="userSpaceOnUse" gradientTransform="translate(50 8.99951) rotate(158.448) scale(63.9726 171.007)">
<stop stop-color="#FB9600"/>
<stop offset="0.609375" stop-color="#332904"/>
<stop offset="1" stop-color="#FFCA0F" stop-opacity="0.92"/>
</radialGradient>
</defs>
</svg>
